<svg xmlns="http://www.w3.org/2000/svg" viewBox="0 0 1600 1000" preserveAspectRatio="xMidYMid slice">
  <defs>
    <path id="a" d="M -120 0 C 260 -55, 560 55, 860 -18 S 1360 60, 1780 -22"/>
    <path id="b" d="M -120 0 C 300 45, 620 -60, 940 28 S 1420 -55, 1780 18"/>
    <path id="c" d="M -120 0 C 220 -30, 520 70, 820 -48 S 1320 45, 1780 -12"/>
  </defs>

  <rect width="1600" height="1000" fill="#ffffff"/>

  <g fill="none" stroke="#0a0a0a" stroke-width="1.4" stroke-linecap="round" stroke-opacity="0.14">
    <use href="#a" transform="translate(0 30)"/>
    <use href="#b" transform="translate(0 86)"/>
    <use href="#c" transform="translate(0 142)"/>
    <use href="#a" transform="translate(0 198)"/>
    <use href="#b" transform="translate(0 254)"/>
    <use href="#c" transform="translate(0 310)"/>
    <use href="#a" transform="translate(0 366)"/>
    <use href="#b" transform="translate(0 422)"/>
    <use href="#c" transform="translate(0 478)"/>
    <use href="#a" transform="translate(0 534)"/>
    <use href="#b" transform="translate(0 590)"/>
    <use href="#c" transform="translate(0 646)"/>
    <use href="#a" transform="translate(0 702)"/>
    <use href="#b" transform="translate(0 758)"/>
    <use href="#c" transform="translate(0 814)"/>
    <use href="#a" transform="translate(0 870)"/>
    <use href="#b" transform="translate(0 926)"/>
    <use href="#c" transform="translate(0 982)"/>
  </g>
</svg>
